<svg width="585" height="123" fill="none" xmlns="http://www.w3.org/2000/svg"><path d="M23.406 45.672H.046V34.5h23.36v-6.094c0-9.583 2.188-16.64 6.563-21.172C34.396 2.704 41.27.438 50.594.438h17.265V12.39H51.531c-5.104 0-8.672 1.067-10.703 3.203-2.031 2.083-3.047 5.807-3.047 11.172V34.5H67.86v11.172H37.781V122H23.406V45.672Z" fill="url(#a)"/><path d="M146.453 122.312c-10.729 0-18.333-2.161-22.812-6.484-4.427-4.375-6.641-11.823-6.641-22.344V45.672H93.64V34.5H117V11.61l14.375-6.25V34.5h32.656v11.172h-32.656v47.812c0 6.407 1.224 10.912 3.672 13.516 2.448 2.552 6.719 3.828 12.812 3.828h16.172v11.484h-17.578Z" fill="url(#b)"/><path d="M231.153 122.625c-8.594 0-15.26-2.76-20-8.281-4.687-5.573-7.031-13.386-7.031-23.438V11.687h-23.047V.438h37.422v90.47c0 6.353 1.198 11.197 3.594 14.531 2.395 3.333 5.885 5 10.468 5h16.797v12.187h-18.203Z" fill="url(#c)"/><path d="m308.875 86.688 66.406-24.766-66.406-25V22.703l82.578 32.656v12.97l-82.578 32.655V86.688Z" fill="url(#d)"/><path d="m405.281 86.688 66.407-24.766-66.407-25V22.703l82.578 32.656v12.97l-82.578 32.655V86.688Z" fill="url(#e)"/><path d="m501.688 86.688 66.406-24.766-66.406-25V22.703l82.578 32.656v12.97l-82.578 32.655V86.688Z" fill="url(#f)"/><defs><linearGradient id="a" x1="60.098" y1="160" x2="190.902" y2="-26" gradientUnits="userSpaceOnUse"><stop stop-color="#60A5FA"/><stop offset=".5" stop-color="#A78BFA"/><stop offset="1" stop-color="#F472B6"/></linearGradient><linearGradient id="b" x1="60.098" y1="160" x2="190.902" y2="-26" gradientUnits="userSpaceOnUse"><stop stop-color="#60A5FA"/><stop offset=".5" stop-color="#A78BFA"/><stop offset="1" stop-color="#F472B6"/></linearGradient><linearGradient id="c" x1="60.098" y1="160" x2="190.902" y2="-26" gradientUnits="userSpaceOnUse"><stop stop-color="#60A5FA"/><stop offset=".5" stop-color="#A78BFA"/><stop offset="1" stop-color="#F472B6"/></linearGradient><linearGradient id="d" x1="378.528" y1="150" x2="507.201" y2="-41.556" gradientUnits="userSpaceOnUse"><stop stop-color="#60A5FA"/><stop offset=".5" stop-color="#A78BFA"/><stop offset="1" stop-color="#F472B6"/></linearGradient><linearGradient id="e" x1="378.528" y1="150" x2="507.201" y2="-41.556" gradientUnits="userSpaceOnUse"><stop stop-color="#60A5FA"/><stop offset=".5" stop-color="#A78BFA"/><stop offset="1" stop-color="#F472B6"/></linearGradient><linearGradient id="f" x1="378.528" y1="150" x2="507.201" y2="-41.556" gradientUnits="userSpaceOnUse"><stop stop-color="#60A5FA"/><stop offset=".5" stop-color="#A78BFA"/><stop offset="1" stop-color="#F472B6"/></linearGradient></defs></svg>
