<svg width="1351" height="671" fill="none" xmlns="http://www.w3.org/2000/svg"><rect width="671" height="671" rx="67.1" fill="#CDD6F4"/><path d="m83.875 363.011 70.455 70.455h286.319l71.404-70.455H83.875ZM154.33 237.534l-70.455 70.455h428.178l-71.404-70.455H154.33Z" fill="#1E1E2E" fill-opacity=".5"/><path d="m349.928 570.685-50.374-49.461L486.866 335.5 299.554 150.019l50.374-49.705L587.125 335.5 349.928 570.685Z" fill="#1E1E2E"/><path d="M981.246 237.936v53.375H808.159v-53.375h173.087Zm-129.816 292.8V210.295c0-19.697 4.067-36.091 12.2-49.181 8.261-13.089 19.317-22.875 33.169-29.356 13.852-6.481 29.229-9.722 46.131-9.722 11.946 0 22.558.953 31.835 2.859 9.277 1.907 16.139 3.622 20.587 5.147l-13.725 53.375c-2.923-.889-6.608-1.779-11.056-2.668-4.448-1.017-9.404-1.525-14.869-1.525-12.835 0-21.922 3.113-27.259 9.34-5.211 6.1-7.816 14.869-7.816 26.306v315.866H851.43Zm330.07-292.8v53.375h-168.32v-53.375h168.32Zm-126.77-70.15h69.01v274.881c0 9.277 1.4 16.394 4.19 21.35 2.92 4.829 6.74 8.134 11.44 9.913 4.7 1.779 9.91 2.669 15.63 2.669 4.32 0 8.26-.318 11.82-.954 3.68-.635 6.48-1.207 8.39-1.715l11.63 53.947c-3.69 1.271-8.96 2.668-15.83 4.193-6.73 1.525-14.99 2.415-24.78 2.669-17.28.509-32.85-2.097-46.7-7.815-13.85-5.846-24.85-14.869-32.98-27.069-8.01-12.2-11.95-27.45-11.82-45.75V167.786Zm259.78-27.45v390.4h-69.01v-390.4h69.01Z" fill="#CDD6F4"/></svg>
